<?xml version="1.0" standalone="no"?>
<!DOCTYPE svg PUBLIC "-//W3C//DTD SVG 20010904//EN"
 "http://www.w3.org/TR/2001/REC-SVG-20010904/DTD/svg10.dtd">
<svg version="1.0" xmlns="http://www.w3.org/2000/svg"
 width="1080.000000pt" height="1080.000000pt" viewBox="0 0 1080.000000 1080.000000"
 preserveAspectRatio="xMidYMid meet">
<metadata>
Created by potrace 1.14, written by Peter Selinger 2001-2017
</metadata>
<g transform="translate(0.000000,1080.000000) scale(0.100000,-0.100000)"
fill="#000000" stroke="none">
<path d="M0 5400 l0 -5400 5400 0 5400 0 0 1778 0 1778 -22 1 c-12 1 -38 19
-58 40 -20 21 -72 73 -116 115 -43 42 -83 81 -89 87 -5 5 -53 49 -105 98 -137
128 -537 523 -811 800 -91 92 -186 187 -211 210 -25 22 -53 51 -61 63 -9 13
-78 86 -154 164 -76 78 -167 173 -202 211 -35 39 -139 149 -230 245 -221 231
-388 412 -428 461 -17 22 -53 61 -80 87 -64 63 -254 269 -272 296 -15 21 -50
61 -131 145 -25 26 -65 71 -90 100 -25 29 -56 64 -70 79 -14 15 -43 49 -65 76
-22 27 -45 54 -51 60 -6 6 -51 58 -99 116 -49 58 -91 107 -95 110 -3 3 -21 25
-40 50 -18 25 -58 73 -88 108 -30 35 -64 78 -76 95 -24 36 -45 62 -92 116 -17
20 -48 59 -69 86 -21 28 -55 70 -75 95 -127 151 -234 280 -260 310 -16 19 -62
79 -103 133 -42 54 -87 107 -101 118 -14 11 -26 27 -26 34 0 8 -13 24 -30 37
-16 12 -32 30 -36 40 -3 11 -27 45 -53 76 -25 31 -72 91 -103 132 -31 41 -69
86 -85 100 -37 34 -127 137 -132 153 -2 6 -17 28 -33 47 -16 19 -41 49 -56 67
-15 18 -42 48 -59 67 -18 20 -33 39 -33 43 0 5 -10 13 -22 18 -13 6 -28 25
-34 44 -6 20 -21 38 -33 42 -12 5 -21 17 -21 29 0 26 12 26 28 0 7 -11 21 -20
31 -20 11 0 22 -9 26 -19 3 -11 21 -26 40 -36 19 -9 35 -21 35 -27 0 -6 24
-33 53 -60 185 -175 335 -319 370 -357 76 -81 111 -115 172 -166 32 -27 86
-79 120 -114 33 -35 69 -72 80 -82 33 -31 148 -119 155 -119 4 0 12 -11 18
-25 7 -14 23 -30 37 -35 14 -5 30 -21 37 -35 6 -13 22 -32 35 -41 14 -8 22
-18 19 -21 -3 -4 3 -12 13 -19 20 -14 55 -11 76 6 10 9 14 6 17 -11 2 -15 14
-26 38 -34 21 -7 36 -19 38 -31 5 -24 30 -44 56 -44 20 0 96 -81 96 -101 0 -5
11 -11 25 -15 14 -3 25 -12 25 -20 0 -23 38 -54 65 -54 22 0 25 4 25 35 0 30
-4 37 -36 50 -31 13 -34 17 -24 35 6 12 14 20 18 18 4 -2 24 -10 44 -18 21 -7
40 -21 43 -30 3 -10 17 -22 30 -28 14 -7 30 -23 36 -36 6 -13 21 -29 34 -36
13 -7 33 -25 44 -41 12 -16 28 -29 36 -29 8 0 19 -8 24 -18 5 -10 22 -24 36
-32 15 -8 85 -71 156 -140 199 -192 1164 -1156 1248 -1246 88 -93 224 -237
370 -389 58 -60 140 -148 181 -193 41 -46 100 -109 130 -139 30 -31 62 -66 70
-78 8 -13 38 -47 65 -78 146 -159 201 -221 209 -236 5 -9 19 -27 32 -41 52
-55 114 -131 114 -139 0 -5 11 -12 25 -15 16 -4 25 -13 25 -25 0 -11 11 -28
25 -39 14 -11 25 -25 25 -32 0 -12 17 -34 118 -148 26 -29 48 -57 50 -63 2 -5
10 -9 18 -9 7 0 23 -18 34 -40 11 -21 29 -44 41 -51 17 -9 20 -18 17 -50 -3
-37 -2 -39 24 -39 19 0 28 -5 28 -15 0 -25 -30 -30 -46 -7 -8 11 -24 22 -36
24 -19 2 -38 26 -50 61 -2 4 -22 10 -46 13 -64 7 -65 -15 -3 -81 28 -29 51
-59 51 -66 0 -7 23 -36 50 -65 28 -29 50 -59 50 -67 0 -8 11 -22 25 -31 14
-10 30 -28 35 -42 6 -14 17 -24 30 -24 19 0 20 6 20 104 0 99 -1 104 -22 111
l-23 8 23 4 c19 4 22 11 22 54 0 36 -4 49 -15 49 -19 0 -85 58 -85 76 0 8 -6
14 -13 14 -20 0 -47 33 -47 58 0 14 -7 22 -22 24 -17 2 -24 11 -26 31 -2 16
-14 34 -28 44 -14 9 -31 30 -38 47 -7 17 -42 60 -77 96 -35 36 -70 77 -76 93
-7 15 -17 27 -23 27 -5 0 -17 15 -26 33 -9 17 -26 42 -38 54 -12 12 -38 41
-58 65 -21 24 -49 57 -64 73 -15 17 -38 47 -52 68 -13 20 -28 37 -32 37 -4 0
-15 17 -26 39 -10 21 -31 45 -46 54 -15 9 -28 23 -28 31 0 8 -11 23 -25 34
-14 11 -25 24 -25 29 0 6 -20 32 -45 59 -24 27 -45 52 -45 56 0 4 -28 40 -62
82 -35 41 -74 89 -88 107 -14 18 -46 57 -72 87 -26 30 -50 63 -53 73 -4 11
-10 19 -15 19 -5 0 -18 16 -30 35 -12 19 -34 48 -48 64 -15 16 -43 50 -62 75
-19 26 -47 60 -62 77 -16 16 -28 33 -28 37 0 4 -14 23 -31 41 -17 19 -49 59
-72 90 -47 63 -158 194 -170 199 -4 2 -7 9 -7 15 0 7 -16 32 -35 57 -19 25
-47 62 -62 83 -15 21 -53 68 -84 105 -54 64 -71 88 -141 195 -17 26 -35 47
-39 47 -4 0 -15 15 -24 34 -9 19 -25 36 -36 39 -10 3 -24 18 -29 33 -6 15 -19
33 -28 40 -25 17 -56 80 -49 98 10 25 34 19 53 -13 10 -16 28 -34 41 -40 13
-6 28 -22 33 -35 5 -13 19 -35 32 -49 90 -98 192 -208 223 -242 21 -22 80 -89
133 -150 52 -60 140 -159 196 -219 55 -59 106 -116 111 -125 13 -21 48 -62
103 -118 23 -24 42 -48 42 -54 0 -5 7 -9 15 -9 9 0 24 -13 33 -29 9 -17 27
-35 39 -40 13 -6 23 -17 23 -26 0 -8 17 -32 38 -53 20 -20 48 -52 60 -70 13
-18 27 -30 32 -27 5 3 21 -10 36 -30 14 -19 32 -35 39 -35 6 0 25 -13 41 -30
16 -16 36 -30 45 -30 9 0 20 -11 23 -25 3 -13 19 -31 34 -39 15 -8 47 -37 72
-65 25 -29 64 -73 87 -99 23 -26 43 -50 43 -55 0 -4 11 -12 25 -17 14 -5 25
-17 25 -28 0 -21 29 -52 49 -52 6 0 21 -16 32 -35 11 -19 29 -37 40 -40 10 -4
28 -28 40 -56 12 -27 25 -49 30 -49 5 0 9 18 9 40 0 45 -46 137 -80 158 -11 7
-20 23 -20 37 0 14 -7 28 -15 31 -20 8 -19 28 1 45 13 11 17 10 26 -4 5 -10
24 -31 43 -48 18 -17 35 -43 39 -59 4 -20 13 -31 29 -36 14 -3 29 -16 36 -30
6 -13 14 -24 19 -24 16 0 52 -37 52 -54 0 -9 11 -21 25 -28 13 -6 28 -24 34
-39 5 -16 21 -40 35 -54 15 -14 26 -29 26 -33 0 -4 26 -35 58 -70 37 -40 66
-62 80 -62 l22 0 0 2875 0 2875 -5400 0 -5400 0 0 -5400z m8350 2093 c0 -26
-1 -26 -15 -7 -19 25 -19 34 0 34 10 0 15 -10 15 -27z m65 -74 c4 -18 3 -35
-4 -42 -8 -8 -11 -3 -11 19 0 17 -5 35 -12 42 -9 9 -8 12 4 12 10 0 19 -12 23
-31z m70 -102 c0 -26 -20 -25 -23 2 -3 16 1 22 10 19 7 -3 13 -12 13 -21z
m1751 -1714 c-11 -11 -19 6 -11 24 8 17 8 17 12 0 3 -10 2 -21 -1 -24z"/>
<path d="M7441 7666 c-16 -19 -6 -36 20 -36 15 0 20 6 17 22 -4 27 -21 33 -37
14z"/>
<path d="M7520 7584 c0 -8 5 -12 10 -9 6 4 8 11 5 16 -9 14 -15 11 -15 -7z"/>
<path d="M10495 5160 c3 -5 8 -10 11 -10 2 0 4 5 4 10 0 6 -5 10 -11 10 -5 0
-7 -4 -4 -10z"/>
<path d="M10557 5097 c-9 -23 8 -41 22 -24 9 11 8 17 -3 26 -10 9 -15 8 -19
-2z"/>
<path d="M10626 5033 c-12 -12 -6 -33 9 -33 8 0 15 6 15 14 0 17 -14 28 -24
19z"/>
<path d="M10777 4843 c-12 -11 -8 -23 8 -23 8 0 15 7 15 15 0 16 -12 20 -23 8z"/>
<path d="M10426 4502 c-11 -19 3 -32 32 -31 16 0 21 3 12 6 -8 4 -20 13 -26
21 -8 11 -13 12 -18 4z"/>
<path d="M10426 4165 c-8 -22 4 -37 22 -26 9 6 9 11 -1 25 -13 18 -14 18 -21
1z"/>
<path d="M10492 4108 c-20 -20 -14 -37 18 -53 17 -9 30 -22 30 -31 0 -18 18
-37 42 -46 9 -4 22 -18 30 -31 21 -39 70 -105 110 -150 21 -23 38 -45 38 -49
0 -5 9 -8 20 -8 18 0 20 7 20 75 0 64 -3 75 -17 75 -9 0 -47 31 -85 70 -37 38
-87 78 -110 89 -24 11 -40 20 -36 21 9 0 -33 50 -42 50 -3 0 -11 -5 -18 -12z"/>
</g>
</svg>
